# xmcd
#
# Track frame offsets:
#	150
#	15865
#	31875
#	45610
#	60883
#	74458
#	87005
#	103552
#	116288
#	125660
#	139100
#	155955
#	176458
#	188201
#	204328
#	223850
#
# Disc length: 3193 seconds
# Revision: 1
# Processed by: cddbd v1.5.2PL0 Copyright (c) Steve Scherf et al.
# Submitted via: dBpowerAMP V12.0
#
DISCID=d50c7710
DTITLE=Various Artist - Great Ballads of Bluegrass
DYEAR=2002
DGENRE=Bluegrass
TTITLE0=Bill Monroe - With Body and Soul
TTITLE1=Mac Wiseman - Kentucky
TTITLE2=Osborne Brothers - Take Me as I Am (Or Let Me Go)
TTITLE3=Bill Harrell - One Morning in May
TTITLE4=Jim and Jesse - Flame of Love
TTITLE5=Marty Stuart - Some Body Loves You Darlin'
TTITLE6=Mac Wiseman - The House of the Rising Sun
TTITLE7=Jim and Jesse - Drifting and Dreaming of You
TTITLE8=The Bluegrass Cardinals - The Old Man in the Park
TTITLE9=Osborne Brothers - (It's a Long Way) To the Top of the World
TTITLE10=Jim and Jesse - Those Brown Eyes
TTITLE11=Mac Wiseman - In the Pines
TTITLE12=The Bluegrass Cardinals - Blue Is the Color of Lonesome
TTITLE13=Jim and Jesse - Remember Me (When the Candlelights Are Gleaming)
TTITLE14=Col. Jim Silvers - Fraulein
TTITLE15=The Stonemans - Tecumseh Valley
EXTD=
EXTT0=
EXTT1=
EXTT2=
EXTT3=
EXTT4=
EXTT5=
EXTT6=
EXTT7=
EXTT8=
EXTT9=
EXTT10=
EXTT11=
EXTT12=
EXTT13=
EXTT14=
EXTT15=
PLAYORDER=
